<svg width="160" height="76" viewBox="0 0 160 76" fill="none" xmlns="http://www.w3.org/2000/svg"><g clip-path="url(#a)"><path d="M53.387.206c3.11-.783 10.043.813 12.986 2.319 3.498 1.516 5.615 3.733 8.313 6.387 9.689 9.53 6.355 23.484 6.947 35.766.206 4.273-.064 7.047 1.481 11.244 1.73 4.716 5.213 8.524 9.674 10.58 5.288 2.45 10.418 2.285 15.878.12 21.256-8.424 6.762-35.282 14.645-51.83 3.086-6.476 7.493-10.31 13.983-13.056 2.04-.864 8.013-2.184 9.936-1.226a3.65 3.65 0 0 1 1.856 2.196c1.472 4.737-6.498 3.561-9.417 4.724-25.231 10.055-2.996 43.253-20.064 59.152-3.984 3.71-7.038 5.639-12.295 7.265a23.6 23.6 0 0 1-11.162.486c-4.46-.909-8.133-3.162-11.591-6.037-17.04-13.077-3.232-37.943-12.923-53.219-11.161-17.594-38.015-6.623-35.861 13.95.414 3.965.82 8.944-2.534 11.274l-7.151.026c-.973 2.264-1.716 4.194-3.282 6.118-2.229 2.703-5.412 4.376-8.841 4.646-3.294.27-7.003-1.003-9.505-3.22C1.874 45.579.282 42.317.036 38.809c-.266-3.773.937-7.5 3.342-10.356 2.217-2.57 5.336-4.12 8.665-4.308 4.869-.318 9.914 1.976 11.888 6.544.788 1.826 1.323 3.52 3.618 3.44 2.77.204 2.618-3.359 2.418-5.687-1.184-13.76 8.424-26.996 23.42-28.236" fill="#4154a3"/><path d="M54.429 24.098c2.863-.186 5.724.41 8.172 1.992 2.83 1.864 4.835 4.8 5.586 8.176 1.62 7.34-2.077 14.548-9.391 16.213-.507 6.829.159 13.865-.265 20.697-.113 1.815-.61 2.82-2.01 3.922q-.192.015-.385.02c-5.056.104-3.532-9.023-3.46-12.642q.112-5.84-.041-11.682c-2.048-.724-3.222-1.094-4.986-2.451-8.112-6.24-6.33-19.699 3.163-23.389 1.403-.545 2.159-.666 3.617-.856M99.962.039c.815.01 1.767.023 2.484.472 1.9 1.191.82 20.187 1.59 23.754 1.707.566 2.818 1.035 4.319 2.127 2.787 2.048 4.655 5.172 5.179 8.661 1.362 8.635-3.451 14.543-11.597 15.85-10.164.218-16.439-8.01-13.31-18.215 1.475-4.815 5.214-6.912 9.34-8.953-.203-2.502-.076-6.389-.103-9.027-.04-3.74-.32-8.106.15-11.774.198-1.548.787-2.086 1.948-2.895" fill="#4154a3"/><path d="M143.213 24.237c7.128-1.685 14.224 2.93 15.827 10.292s-2.9 14.666-10.041 16.288c-7.099 1.613-14.125-3-15.718-10.317-1.593-7.319 2.847-14.589 9.932-16.263" fill="#eb4379"/></g><defs><clipPath id="a"><path fill="#fff" d="M0 0h159.364v75.118H0z"/></clipPath></defs></svg>