<svg width="1242" height="721" viewBox="0 0 1242 721" fill="none" xmlns="http://www.w3.org/2000/svg">
<path d="M1242 0V768H-166V0H1242ZM262.74 389.23C264.447 378.163 261.193 368.917 252.98 361.49C250.42 358.477 246.463 356.247 241.11 354.8C240.81 354.72 240.545 354.542 240.357 354.294C240.169 354.046 240.068 353.742 240.07 353.43C240.277 338.457 240.277 322.977 240.07 306.99C240.043 304.703 239.477 302.97 238.37 301.79C235.09 298.28 229.56 299.23 227.1 303.07C226.34 304.27 225.943 306.67 225.91 310.27C225.82 321.81 226.2 339.9 225.9 354.3C225.897 354.409 225.858 354.514 225.789 354.599C225.72 354.684 225.626 354.744 225.52 354.77C201.03 360.88 194.78 393.15 214.89 408.14C222.137 413.54 230.413 415.373 239.72 413.64C242.607 413.1 245.727 411.74 249.08 409.56C256.84 404.52 261.393 397.743 262.74 389.23ZM71.4 353.23L70.72 376.2C70.715 376.385 70.639 376.56 70.508 376.689C70.377 376.818 70.202 376.89 70.02 376.89H63.57C63.396 376.89 63.223 376.85 63.066 376.774C62.908 376.698 62.769 376.587 62.66 376.45C62.227 375.897 61.993 375.193 61.96 374.34C59.68 368.04 55.9 363.063 50.62 359.41C39.16 351.48 22.5 352.34 12.44 362.27C4.82 369.79 1.86301 378.783 3.57001 389.25C5.23001 399.4 13.3 409.05 23.22 412.4C32.66 415.587 41.927 414.19 51.02 408.21C57.11 404.2 60.27 398.2 62.64 391.46C62.724 391.229 62.882 391.032 63.091 390.902C63.299 390.771 63.545 390.714 63.79 390.74C69.837 391.367 75.737 391.12 81.49 390C83.423 388.28 84.42 386.443 84.48 384.49C84.587 380.997 84.68 377.5 84.76 374C84.92 367.71 84.27 358.81 85.29 351.09C87.877 338.237 94.333 328.297 104.66 321.27C114.15 315.56 124.14 312.75 134.88 314.1C140.62 314.82 146.147 316.703 151.46 319.75C162.847 326.283 170.213 336.393 173.56 350.08C173.88 354.17 174.43 358.35 174.35 362.32C174.203 369.867 174.17 384.343 174.25 405.75C174.27 411.777 174.643 416.923 175.37 421.19C177.38 433.04 183.87 442.58 192.26 451.45C199.16 458.74 211.1 464.71 220.28 466.95C227.6 468.743 236.173 468.767 246 467.02C253.7 465.66 261.11 461.51 267.74 456.97C279.03 449.24 287.81 435.1 290.93 421.91C291.583 419.13 291.913 414.433 291.92 407.82C291.92 389.72 291.98 371.633 292.1 353.56C292.813 345.82 295.753 338.61 300.92 331.93C309.987 320.197 321.393 314.243 335.14 314.07C338.44 314.03 340.85 313.4 342.52 310.92C343.673 309.207 343.957 307.2 343.37 304.9C342.483 301.407 339.86 299.74 335.5 299.9C330.587 300.087 326.113 300.717 322.08 301.79C317.887 302.757 314.143 304.107 310.85 305.84C292.15 315.667 281.23 331.117 278.09 352.19C277.77 363.97 277.95 376.44 277.68 391.98C277.627 395.133 277.683 400.183 277.85 407.13C277.92 410.25 277.56 413.43 277.37 416.61C275.083 428.363 269.627 437.717 261 444.67C254.6 449.823 247.44 452.94 239.52 454.02C231.76 455.08 223.997 454.107 216.23 451.1C208.403 447.16 202.437 442.6 198.33 437.42C194.67 432.8 191.81 426.7 189.75 419.12C188.723 415.32 188.3 408.873 188.48 399.78C188.667 390.113 188.643 377.023 188.41 360.51C188.31 353.397 187.527 347.563 186.06 343.01C182.06 329.917 175.137 319.557 165.29 311.93C161.223 308.777 155.917 305.93 149.37 303.39C127.07 294.74 100.13 302.18 84.9 320.5C81.233 324.907 78.23 329.613 75.89 334.62C72.68 341.47 72.31 346.57 71.4 353.23ZM944.08 317.723C943.97 319.727 944.71 321.697 946.13 323.198C947.55 324.7 949.54 325.61 951.66 325.728C952.71 325.787 953.76 325.65 954.75 325.324C955.74 324.998 956.65 324.491 957.44 323.831C958.22 323.17 958.85 322.37 959.31 321.475C959.76 320.581 960.02 319.61 960.08 318.617C960.19 316.613 959.45 314.643 958.03 313.142C956.61 311.64 954.62 310.73 952.5 310.612C951.45 310.553 950.4 310.69 949.41 311.016C948.42 311.342 947.51 311.849 946.72 312.509C945.94 313.17 945.31 313.97 944.85 314.865C944.4 315.759 944.14 316.73 944.08 317.723ZM435.39 315.11C435.39 315.028 435.357 314.949 435.299 314.891C435.241 314.833 435.162 314.8 435.08 314.8H420.84C420.799 314.8 420.759 314.808 420.721 314.824C420.684 314.839 420.65 314.862 420.621 314.891C420.592 314.92 420.569 314.954 420.554 314.991C420.538 315.029 420.53 315.069 420.53 315.11V384.73C420.53 384.771 420.538 384.811 420.554 384.849C420.569 384.886 420.592 384.92 420.621 384.949C420.65 384.978 420.684 385.001 420.721 385.016C420.759 385.032 420.799 385.04 420.84 385.04H435.08C435.162 385.04 435.241 385.007 435.299 384.949C435.357 384.891 435.39 384.812 435.39 384.73V315.11ZM890.37 338.98C890.52 338.98 890.61 339.057 890.65 339.21C893.45 349.35 897.76 364.483 903.59 384.61C903.63 384.745 903.71 384.864 903.82 384.949C903.94 385.033 904.08 385.08 904.22 385.08H917.47C917.68 385.08 917.88 385.011 918.05 384.885C918.22 384.759 918.34 384.582 918.4 384.38L937.88 315.5C937.9 315.418 937.91 315.331 937.89 315.246C937.88 315.161 937.84 315.081 937.79 315.012C937.74 314.943 937.67 314.887 937.59 314.849C937.51 314.81 937.43 314.79 937.34 314.79H922.54C922.38 314.789 922.22 314.842 922.09 314.94C921.97 315.039 921.88 315.176 921.84 315.33L910.56 362.31C910.54 362.383 910.5 362.448 910.44 362.495C910.38 362.542 910.31 362.568 910.23 362.569C910.16 362.571 910.08 362.547 910.03 362.501C909.97 362.456 909.93 362.392 909.91 362.32L897.58 315.23C897.55 315.092 897.47 314.97 897.36 314.883C897.25 314.795 897.11 314.749 896.97 314.75C896.34 314.75 894.14 314.75 890.37 314.75C886.59 314.75 884.39 314.753 883.76 314.76C883.62 314.758 883.49 314.803 883.38 314.889C883.27 314.974 883.19 315.094 883.15 315.23L870.85 362.33C870.83 362.402 870.79 362.466 870.73 362.511C870.68 362.557 870.6 362.58 870.53 362.579C870.45 362.578 870.38 362.552 870.32 362.505C870.26 362.458 870.22 362.393 870.2 362.32L858.89 315.35C858.85 315.196 858.76 315.059 858.64 314.96C858.51 314.862 858.35 314.809 858.19 314.81L843.39 314.82C843.3 314.82 843.22 314.84 843.14 314.879C843.06 314.917 842.99 314.973 842.94 315.042C842.89 315.111 842.85 315.191 842.84 315.276C842.82 315.361 842.82 315.448 842.85 315.53L862.37 384.4C862.43 384.602 862.55 384.779 862.72 384.905C862.89 385.031 863.09 385.1 863.3 385.1L876.55 385.09C876.69 385.09 876.83 385.043 876.95 384.959C877.06 384.874 877.14 384.755 877.18 384.62C883 364.487 887.3 349.35 890.09 339.21C890.14 339.057 890.23 338.98 890.37 338.98ZM502.48 332.71V342.68C502.48 342.874 502.557 343.059 502.694 343.196C502.831 343.333 503.016 343.41 503.21 343.41H509.29C509.367 343.41 509.443 343.425 509.514 343.455C509.585 343.485 509.65 343.528 509.704 343.583C509.758 343.638 509.8 343.703 509.829 343.775C509.857 343.846 509.871 343.923 509.87 344C509.717 354.54 509.687 363.53 509.78 370.97C509.89 380.21 515.87 385.06 524.72 385.73C527.82 385.97 532.14 385.79 535 384.66C535.329 384.528 535.598 384.28 535.756 383.963C535.915 383.646 535.952 383.282 535.86 382.94L533.49 373.86C533.468 373.778 533.43 373.702 533.378 373.635C533.326 373.568 533.261 373.513 533.186 373.472C533.111 373.431 533.029 373.405 532.944 373.396C532.859 373.387 532.772 373.395 532.69 373.42C529.1 374.52 524.47 374.35 524.5 369.22C524.58 357.887 524.593 349.443 524.54 343.89C524.539 343.824 524.551 343.757 524.575 343.696C524.6 343.634 524.636 343.577 524.683 343.53C524.729 343.482 524.785 343.445 524.846 343.419C524.908 343.393 524.973 343.38 525.04 343.38H534.13C534.194 343.38 534.258 343.367 534.318 343.343C534.377 343.318 534.431 343.282 534.477 343.236C534.522 343.191 534.558 343.137 534.583 343.078C534.607 343.018 534.62 342.954 534.62 342.89V332.78C534.62 332.613 534.553 332.453 534.433 332.335C534.313 332.216 534.15 332.15 533.98 332.15H525.51C525.255 332.15 525.011 332.049 524.831 331.869C524.651 331.689 524.55 331.445 524.55 331.19V319.61C524.55 319.435 524.482 319.267 524.36 319.143C524.238 319.02 524.072 318.95 523.9 318.95H510.48C510.305 318.95 510.137 319.02 510.013 319.143C509.89 319.267 509.82 319.435 509.82 319.61V331.36C509.82 331.551 509.744 331.734 509.609 331.869C509.474 332.004 509.291 332.08 509.1 332.08H503.11C502.943 332.08 502.783 332.146 502.665 332.265C502.546 332.383 502.48 332.543 502.48 332.71ZM753.29 343.32H759.08C759.208 343.32 759.335 343.345 759.454 343.395C759.572 343.444 759.679 343.517 759.769 343.608C759.86 343.699 759.931 343.807 759.979 343.926C760.027 344.045 760.051 344.172 760.05 344.3C759.943 355.647 759.88 362.737 759.86 365.57C759.8 372.66 759.76 378.64 765.1 382.66C770.08 386.39 779.35 386.48 785.19 384.69C785.447 384.613 785.667 384.445 785.809 384.219C785.951 383.992 786.005 383.722 785.96 383.46L784.39 373.81C784.373 373.703 784.335 373.6 784.277 373.508C784.22 373.416 784.144 373.336 784.054 373.273C783.965 373.211 783.863 373.167 783.756 373.144C783.649 373.121 783.538 373.12 783.43 373.14C780 373.81 775.03 374.27 774.8 369.55C774.353 360.37 774.357 351.757 774.81 343.71C774.815 343.618 774.856 343.531 774.925 343.468C774.994 343.405 775.085 343.37 775.18 343.37H784.55C784.675 343.37 784.794 343.32 784.882 343.232C784.97 343.144 785.02 343.025 785.02 342.9V332.73C785.02 332.55 784.949 332.377 784.824 332.249C784.698 332.122 784.528 332.05 784.35 332.05H775.35C775.262 332.05 775.175 332.033 775.094 332C775.012 331.967 774.938 331.918 774.876 331.857C774.814 331.795 774.765 331.723 774.731 331.643C774.697 331.563 774.68 331.477 774.68 331.39V319.76C774.68 319.558 774.6 319.365 774.457 319.223C774.315 319.08 774.122 319 773.92 319H760.67C760.468 319 760.275 319.08 760.133 319.223C759.99 319.365 759.91 319.558 759.91 319.76V331.31C759.91 331.498 759.836 331.679 759.705 331.812C759.574 331.945 759.396 332.02 759.21 332.02H753.01C752.869 332.02 752.735 332.076 752.635 332.175C752.536 332.275 752.48 332.409 752.48 332.55V342.51C752.48 342.616 752.501 342.722 752.542 342.82C752.582 342.918 752.642 343.008 752.717 343.083C752.792 343.158 752.882 343.218 752.98 343.258C753.078 343.299 753.184 343.32 753.29 343.32ZM675.91 340.42V332.62C675.91 332.474 675.853 332.334 675.752 332.231C675.651 332.128 675.513 332.07 675.37 332.07H662.35C662.207 332.07 662.069 332.128 661.968 332.231C661.867 332.334 661.81 332.474 661.81 332.62V384.27C661.81 384.487 661.896 384.696 662.05 384.85C662.204 385.004 662.413 385.09 662.63 385.09H676.29C676.409 385.09 676.524 385.043 676.608 384.958C676.693 384.874 676.74 384.759 676.74 384.64C676.707 374.52 676.72 364.807 676.78 355.5C676.813 350.873 678.587 347.51 682.1 345.41C685.36 343.45 689.9 343.96 693.54 344.89C693.63 344.913 693.724 344.915 693.815 344.897C693.906 344.878 693.992 344.84 694.065 344.784C694.138 344.728 694.198 344.656 694.238 344.574C694.279 344.492 694.3 344.402 694.3 344.31V332.3C694.3 332.156 694.25 332.016 694.157 331.904C694.064 331.791 693.935 331.712 693.79 331.68C685.55 330 679.85 332.7 676.59 340.55C676.562 340.629 676.507 340.696 676.434 340.738C676.362 340.779 676.276 340.794 676.194 340.778C676.112 340.762 676.038 340.717 675.986 340.652C675.933 340.586 675.907 340.504 675.91 340.42ZM731.7 378.75L731.42 384.2C731.415 384.306 731.431 384.412 731.467 384.511C731.504 384.61 731.561 384.701 731.634 384.778C731.707 384.854 731.795 384.915 731.892 384.957C731.989 384.999 732.094 385.02 732.2 385.02H744.86C744.92 385.02 744.979 385.008 745.035 384.985C745.09 384.962 745.14 384.928 745.182 384.885C745.224 384.842 745.257 384.791 745.279 384.735C745.301 384.68 745.311 384.62 745.31 384.56C745.263 377.787 745.277 368.853 745.35 357.76C745.397 351.327 745.19 346.977 744.73 344.71C743.46 338.44 737.57 333.87 731.66 332.42C719.22 329.36 702.96 332.13 699.43 346.58C699.406 346.676 699.404 346.776 699.424 346.874C699.443 346.971 699.484 347.062 699.544 347.142C699.603 347.221 699.679 347.286 699.767 347.333C699.854 347.379 699.951 347.406 700.05 347.41L712.3 348.03C712.42 348.036 712.539 348.009 712.643 347.952C712.747 347.896 712.833 347.812 712.89 347.71C715.73 342.763 720.23 341.12 726.39 342.78C729.49 343.62 730.903 345.773 730.63 349.24C730.523 350.52 729.763 351.397 728.35 351.87C723.12 353.61 715.68 353.67 712.78 354.3C709.493 355.007 706.687 356.03 704.36 357.37C697.17 361.52 695.77 370.59 699.11 377.7C703.28 386.6 715.83 387.53 723.89 384.58C726.857 383.493 729.147 381.46 730.76 378.48C730.814 378.379 730.901 378.299 731.006 378.255C731.112 378.21 731.229 378.203 731.339 378.235C731.449 378.266 731.545 378.335 731.611 378.428C731.677 378.522 731.708 378.636 731.7 378.75ZM806.69 362.1H841.4C841.57 362.1 841.73 362.034 841.85 361.917C841.97 361.799 842.03 361.639 842.04 361.47C842.16 356.23 841.86 349.83 839.74 345.09C836.09 336.923 829.607 332.397 820.28 331.51C810.893 330.617 803.403 333.377 797.81 339.79C793.39 344.86 792.02 350.34 791.6 357.02C790.32 377.21 804.32 388.62 823.96 385.64C832.927 384.28 838.89 379.373 841.84 370.92C841.88 370.817 841.89 370.708 841.87 370.6C841.86 370.492 841.82 370.389 841.76 370.297C841.71 370.206 841.63 370.129 841.53 370.072C841.44 370.016 841.34 369.981 841.23 369.97L828.7 368.71C828.533 368.692 828.364 368.728 828.22 368.813C828.076 368.898 827.964 369.026 827.9 369.18C826.313 373.027 823.23 374.933 818.65 374.9C810.797 374.84 806.58 370.82 806 362.84C805.993 362.745 806.006 362.65 806.037 362.561C806.069 362.471 806.119 362.389 806.184 362.319C806.248 362.25 806.327 362.195 806.414 362.157C806.501 362.119 806.595 362.1 806.69 362.1ZM982.88 369.07C982.83 368.911 982.73 368.772 982.59 368.676C982.45 368.58 982.29 368.532 982.12 368.54L968.84 369.34C968.75 369.347 968.66 369.373 968.58 369.417C968.5 369.461 968.43 369.521 968.37 369.594C968.32 369.668 968.28 369.752 968.26 369.841C968.24 369.93 968.24 370.021 968.26 370.11C970.55 380.7 979.23 385.65 989.56 385.91C998.33 386.13 1006.71 385.26 1012.43 378.44C1017.32 372.62 1016.93 362.02 1010.2 357.71C1005.15 354.48 999.88 353.92 992.87 352.7C989.06 352.04 981.44 349.53 985.41 344.37C988.35 340.54 995.1 341.48 998.7 343.51C999.31 343.85 1000.19 345.11 1001.36 347.29C1001.44 347.431 1001.56 347.547 1001.7 347.625C1001.84 347.703 1002 347.739 1002.16 347.73L1014.07 347.01C1014.17 347.004 1014.27 346.977 1014.36 346.931C1014.45 346.884 1014.53 346.819 1014.59 346.74C1014.66 346.661 1014.7 346.569 1014.73 346.471C1014.75 346.372 1014.76 346.27 1014.74 346.17C1014.15 342.77 1012.44 339.743 1009.61 337.09C1004.35 332.17 997.78 331.18 990.65 331.35C982.62 331.55 974.31 334.62 970.89 342.23C969.35 345.657 969.26 349.193 970.61 352.84C973.78 361.44 983.56 362.78 993.21 364.49C996.93 365.15 1002.04 366.52 1000.72 371.48C1000.22 373.38 997.97 374.38 996.08 374.83C990.64 376.11 984.65 374.86 982.88 369.07ZM460.69 340.22V332.76C460.69 332.668 460.672 332.577 460.637 332.492C460.603 332.407 460.552 332.33 460.488 332.265C460.424 332.2 460.348 332.148 460.264 332.113C460.18 332.078 460.091 332.06 460 332.06H447.38C447.301 332.06 447.223 332.076 447.15 332.106C447.078 332.137 447.011 332.182 446.956 332.239C446.9 332.295 446.856 332.363 446.826 332.437C446.796 332.511 446.78 332.59 446.78 332.67V384.31C446.78 384.414 446.8 384.516 446.839 384.612C446.879 384.708 446.936 384.795 447.008 384.869C447.081 384.942 447.167 385 447.262 385.04C447.356 385.08 447.458 385.1 447.56 385.1H460.91C461.059 385.1 461.203 385.04 461.31 384.934C461.416 384.827 461.477 384.682 461.48 384.53C461.487 376.997 461.437 367.973 461.33 357.46C461.297 354.373 461.523 352.14 462.01 350.76C463.71 345.95 467.5 343.37 472.51 343.79C477.95 344.24 480.46 348.3 480.57 353.51C480.803 364.47 480.817 374.817 480.61 384.55C480.609 384.624 480.622 384.698 480.65 384.767C480.677 384.836 480.718 384.899 480.77 384.952C480.823 385.006 480.885 385.048 480.953 385.076C481.022 385.105 481.096 385.12 481.17 385.12H495.13C495.223 385.12 495.312 385.083 495.378 385.017C495.443 384.952 495.48 384.863 495.48 384.77C495.453 369.357 495.437 357.933 495.43 350.5C495.42 340.77 489.87 332.54 479.66 331.6C471.113 330.813 465.01 333.743 461.35 340.39C461.313 340.46 461.254 340.515 461.182 340.548C461.11 340.58 461.029 340.586 460.953 340.567C460.876 340.547 460.809 340.502 460.761 340.439C460.713 340.376 460.688 340.299 460.69 340.22ZM556.06 362.13L590.7 362.01C590.865 362.007 591.022 361.94 591.139 361.823C591.257 361.706 591.325 361.547 591.33 361.38C591.44 356.15 591.11 349.76 588.98 345.04C585.313 336.9 578.823 332.403 569.51 331.55C560.143 330.697 552.68 333.48 547.12 339.9C542.72 344.97 541.38 350.45 540.98 357.11C539.78 377.27 553.79 388.6 573.38 385.56C582.32 384.173 588.25 379.257 591.17 370.81C591.205 370.707 591.217 370.598 591.204 370.49C591.191 370.382 591.153 370.279 591.095 370.187C591.036 370.096 590.958 370.019 590.865 369.962C590.772 369.906 590.668 369.871 590.56 369.86L578.05 368.65C577.883 368.632 577.714 368.668 577.57 368.753C577.426 368.838 577.314 368.967 577.25 369.12C575.683 372.967 572.613 374.88 568.04 374.86C560.2 374.827 555.977 370.83 555.37 362.87C555.363 362.775 555.376 362.68 555.407 362.591C555.439 362.501 555.489 362.419 555.554 362.349C555.618 362.28 555.697 362.225 555.784 362.187C555.871 362.149 555.965 362.13 556.06 362.13ZM635.96 339.89C635.959 339.937 635.944 339.983 635.916 340.021C635.889 340.059 635.85 340.087 635.806 340.102C635.763 340.116 635.716 340.116 635.674 340.102C635.631 340.087 635.595 340.058 635.57 340.02C635.103 339.393 634.59 338.63 634.03 337.73C629.2 329.97 617.75 330.21 610.78 333.65C607.733 335.157 605.057 337.797 602.75 341.57C598.55 348.43 598.23 355.21 598.93 363.26C599.97 375.13 607.25 384.02 619.67 384.3C626.67 384.46 631.943 381.837 635.49 376.43C635.528 376.37 635.585 376.324 635.651 376.3C635.718 376.276 635.791 376.275 635.859 376.296C635.926 376.318 635.985 376.362 636.025 376.42C636.065 376.479 636.084 376.549 636.08 376.62C636 379.8 635.917 382.993 635.83 386.2C635.59 395.69 625.16 396.62 618.15 394.17C616.3 393.52 614.72 391.63 613.76 389.99C613.639 389.787 613.459 389.624 613.243 389.524C613.027 389.425 612.786 389.392 612.55 389.43L600.57 391.37C600.465 391.388 600.365 391.428 600.277 391.488C600.189 391.548 600.115 391.626 600.06 391.717C600.005 391.808 599.97 391.91 599.958 392.016C599.946 392.122 599.957 392.229 599.99 392.33C602.56 400.1 610.04 404.61 617.89 405.84C629.58 407.67 644.32 405.22 649.32 392.86C650.187 390.727 650.613 386.277 650.6 379.51C650.533 348.717 650.5 333.027 650.5 332.44C650.5 332.337 650.46 332.237 650.389 332.164C650.317 332.091 650.221 332.05 650.12 332.05L636.34 331.98C636.239 331.98 636.143 332.02 636.071 332.091C636 332.163 635.96 332.259 635.96 332.36V339.89ZM1037.58 362.15L1072.2 361.97C1072.37 361.97 1072.53 361.904 1072.65 361.787C1072.77 361.669 1072.83 361.509 1072.84 361.34C1072.93 356.11 1072.59 349.73 1070.46 345.01C1066.78 336.883 1060.29 332.403 1050.98 331.57C1041.61 330.73 1034.16 333.523 1028.61 339.95C1024.23 345.03 1022.89 350.5 1022.51 357.16C1021.34 377.31 1035.36 388.61 1054.93 385.54C1063.86 384.133 1069.78 379.207 1072.69 370.76C1072.72 370.657 1072.73 370.548 1072.72 370.441C1072.7 370.334 1072.67 370.231 1072.61 370.141C1072.55 370.05 1072.47 369.975 1072.37 369.919C1072.28 369.864 1072.18 369.83 1072.07 369.82L1059.57 368.63C1059.4 368.612 1059.23 368.648 1059.09 368.733C1058.95 368.818 1058.83 368.947 1058.77 369.1C1057.21 372.947 1054.15 374.863 1049.58 374.85C1041.75 374.837 1037.52 370.85 1036.9 362.89C1036.89 362.796 1036.91 362.702 1036.94 362.613C1036.97 362.524 1037.02 362.442 1037.08 362.373C1037.14 362.304 1037.22 362.248 1037.31 362.21C1037.39 362.171 1037.49 362.151 1037.58 362.15ZM959.38 332.49C959.38 332.371 959.33 332.256 959.25 332.172C959.16 332.087 959.05 332.04 958.93 332.04H945.07C944.95 332.04 944.84 332.087 944.75 332.172C944.67 332.256 944.62 332.371 944.62 332.49V384.63C944.62 384.749 944.67 384.864 944.75 384.948C944.84 385.033 944.95 385.08 945.07 385.08H958.93C959.05 385.08 959.16 385.033 959.25 384.948C959.33 384.864 959.38 384.749 959.38 384.63V332.49ZM332.67 354.07C326.376 354.954 320.524 357.791 315.94 362.18C311.843 366.101 308.932 371.094 307.54 376.59C305.863 383.208 306.472 390.2 309.27 396.43C311.597 401.599 315.328 406.01 320.04 409.16C325.553 412.85 332.127 414.625 338.75 414.21C344.085 413.873 349.235 412.129 353.675 409.157C358.116 406.185 361.689 402.091 364.03 397.29C367.397 390.396 368.019 382.485 365.77 375.16C364.29 370.337 361.629 365.961 358.027 362.43C354.426 358.899 349.999 356.324 345.15 354.94C343.898 354.587 342.622 354.313 341.33 354.12C338.458 353.689 335.542 353.672 332.67 354.07ZM101.92 395.99C105.64 404.93 112.253 410.653 121.76 413.16C122.001 413.226 122.214 413.369 122.366 413.568C122.518 413.767 122.6 414.01 122.6 414.26C122.493 431.54 122.443 446.887 122.45 460.3C122.45 464.513 124.13 467.103 127.49 468.07C130.93 469.07 133.74 467.78 135.58 464.84C136.267 463.74 136.61 461.447 136.61 457.96C136.643 441.427 136.61 426.773 136.51 414C136.509 413.804 136.574 413.613 136.693 413.456C136.812 413.299 136.979 413.184 137.17 413.13C146.323 410.557 152.82 405.223 156.66 397.13C160.027 389.957 160.633 382.74 158.48 375.48C155.14 364.23 144.85 354.74 132.7 354C122.76 353.39 112.68 356.51 106.71 364.2C103.47 368.373 101.403 372.057 100.51 375.25C99.123 380.23 99.03 385.823 100.23 392.03C100.47 393.277 101.033 394.597 101.92 395.99ZM589.93 421.42C589.93 420.574 589.594 419.763 588.996 419.164C588.397 418.566 587.586 418.23 586.74 418.23C585.894 418.23 585.083 418.566 584.484 419.164C583.886 419.763 583.55 420.574 583.55 421.42C583.55 422.266 583.886 423.077 584.484 423.676C585.083 424.274 585.894 424.61 586.74 424.61C587.586 424.61 588.397 424.274 588.996 423.676C589.594 423.077 589.93 422.266 589.93 421.42ZM838.75 421.44C838.75 420.581 838.41 419.757 837.8 419.149C837.19 418.541 836.37 418.2 835.51 418.2C834.65 418.2 833.827 418.541 833.219 419.149C832.611 419.757 832.27 420.581 832.27 421.44C832.27 422.299 832.611 423.123 833.219 423.731C833.827 424.339 834.65 424.68 835.51 424.68C836.37 424.68 837.19 424.339 837.8 423.731C838.41 423.123 838.75 422.299 838.75 421.44ZM421.41 436.63C421.41 444.963 421.397 450.49 421.37 453.21C421.37 453.29 421.402 453.366 421.458 453.422C421.514 453.478 421.59 453.51 421.67 453.51H442.4C442.543 453.51 442.681 453.453 442.782 453.352C442.883 453.251 442.94 453.113 442.94 452.97V449.46C442.94 449.39 442.926 449.321 442.9 449.257C442.873 449.193 442.834 449.134 442.785 449.085C442.736 449.036 442.677 448.997 442.613 448.97C442.548 448.944 442.48 448.93 442.41 448.93H427.24C427.107 448.93 426.98 448.877 426.886 448.784C426.793 448.69 426.74 448.563 426.74 448.43V439.27C426.74 439.156 426.784 439.047 426.863 438.966C426.942 438.885 427.049 438.84 427.16 438.84H441.15C441.223 438.84 441.295 438.825 441.361 438.797C441.428 438.769 441.489 438.727 441.539 438.675C441.589 438.623 441.629 438.561 441.655 438.493C441.681 438.425 441.693 438.353 441.69 438.28C441.67 437.747 441.66 437.197 441.66 436.63C441.66 436.07 441.67 435.523 441.69 434.99C441.693 434.917 441.681 434.845 441.655 434.777C441.629 434.709 441.589 434.647 441.539 434.595C441.489 434.543 441.428 434.501 441.361 434.473C441.295 434.445 441.223 434.43 441.15 434.43L427.16 434.42C427.049 434.42 426.942 434.375 426.863 434.294C426.784 434.213 426.74 434.104 426.74 433.99V424.83C426.74 424.697 426.793 424.57 426.886 424.476C426.98 424.383 427.107 424.33 427.24 424.33L442.41 424.34C442.48 424.34 442.548 424.326 442.613 424.3C442.677 424.273 442.736 424.234 442.785 424.185C442.834 424.136 442.873 424.077 442.9 424.013C442.926 423.949 442.94 423.88 442.94 423.81V420.3C442.94 420.157 442.883 420.019 442.782 419.918C442.681 419.817 442.543 419.76 442.4 419.76L421.67 419.75C421.63 419.75 421.59 419.758 421.553 419.774C421.516 419.789 421.482 419.812 421.454 419.841C421.426 419.87 421.404 419.905 421.39 419.942C421.375 419.98 421.369 420.02 421.37 420.06C421.397 422.78 421.41 428.303 421.41 436.63ZM665.4 420.26C665.4 420.141 665.353 420.026 665.268 419.942C665.184 419.857 665.069 419.81 664.95 419.81H660.51C660.391 419.81 660.276 419.857 660.192 419.942C660.107 420.026 660.06 420.141 660.06 420.26V453.02C660.06 453.079 660.072 453.138 660.094 453.192C660.117 453.247 660.15 453.296 660.192 453.338C660.234 453.38 660.283 453.413 660.338 453.436C660.392 453.458 660.451 453.47 660.51 453.47H664.95C665.009 453.47 665.068 453.458 665.122 453.436C665.177 453.413 665.226 453.38 665.268 453.338C665.31 453.296 665.343 453.247 665.366 453.192C665.388 453.138 665.4 453.079 665.4 453.02V420.26ZM483.1 427.54L483.12 422.72C483.12 422.545 483.05 422.377 482.927 422.253C482.803 422.13 482.635 422.06 482.46 422.06L478.69 422.04C478.605 422.039 478.521 422.054 478.442 422.086C478.363 422.117 478.291 422.164 478.231 422.224C478.17 422.283 478.122 422.354 478.09 422.433C478.057 422.511 478.04 422.595 478.04 422.68L478.02 427.47C478.02 427.563 478.001 427.655 477.964 427.741C477.927 427.827 477.873 427.904 477.805 427.969C477.736 428.033 477.656 428.084 477.567 428.116C477.479 428.149 477.384 428.164 477.29 428.16L474.9 428.02C474.83 428.017 474.759 428.028 474.693 428.053C474.627 428.077 474.567 428.114 474.516 428.162C474.464 428.209 474.423 428.266 474.395 428.329C474.367 428.393 474.351 428.461 474.35 428.53L474.34 431.66C474.34 431.812 474.4 431.958 474.506 432.067C474.613 432.175 474.758 432.237 474.91 432.24L477.52 432.25C477.604 432.25 477.686 432.267 477.763 432.299C477.841 432.331 477.91 432.378 477.969 432.438C478.028 432.498 478.074 432.568 478.105 432.646C478.136 432.723 478.151 432.806 478.15 432.89C478.137 438.463 478.137 442.803 478.15 445.91C478.15 448.297 478.397 449.893 478.89 450.7C480.82 453.86 484.45 454.09 487.85 453.6C487.979 453.581 488.102 453.536 488.213 453.467C488.323 453.398 488.417 453.306 488.489 453.198C488.56 453.091 488.608 452.969 488.629 452.842C488.65 452.714 488.644 452.584 488.61 452.46L487.99 450.02C487.917 449.745 487.745 449.507 487.506 449.352C487.268 449.197 486.981 449.136 486.7 449.18C484.247 449.547 483.033 448.643 483.06 446.47C483.067 445.597 483.06 441.097 483.04 432.97C483.04 432.784 483.114 432.606 483.245 432.475C483.376 432.344 483.554 432.27 483.74 432.27L487.64 432.29C487.835 432.29 488.021 432.213 488.16 432.077C488.298 431.94 488.377 431.755 488.38 431.56L488.39 429.2C488.39 428.934 488.286 428.678 488.101 428.489C487.915 428.3 487.664 428.193 487.4 428.19L483.72 428.17C483.555 428.167 483.397 428.1 483.281 427.982C483.165 427.864 483.1 427.705 483.1 427.54ZM706.31 427.52V422.68C706.31 422.505 706.24 422.337 706.117 422.213C705.993 422.09 705.825 422.02 705.65 422.02L701.85 422.01C701.765 422.01 701.681 422.027 701.603 422.06C701.524 422.092 701.453 422.14 701.394 422.201C701.334 422.261 701.287 422.333 701.256 422.412C701.224 422.491 701.209 422.575 701.21 422.66V427.48C701.21 427.574 701.191 427.667 701.153 427.754C701.116 427.84 701.061 427.918 700.991 427.983C700.922 428.047 700.84 428.097 700.75 428.129C700.661 428.162 700.565 428.175 700.47 428.17L698.07 428.04C697.999 428.037 697.928 428.049 697.861 428.074C697.794 428.099 697.733 428.137 697.682 428.185C697.631 428.234 697.59 428.292 697.562 428.356C697.534 428.421 697.52 428.49 697.52 428.56V431.7C697.52 431.854 697.581 432.001 697.69 432.11C697.799 432.219 697.946 432.28 698.1 432.28L700.72 432.29C700.887 432.29 701.047 432.356 701.165 432.475C701.284 432.593 701.35 432.753 701.35 432.92C701.357 438.527 701.373 442.893 701.4 446.02C701.413 448.413 701.67 450.017 702.17 450.83C704.12 454 707.77 454.22 711.19 453.71C711.319 453.69 711.443 453.644 711.553 453.573C711.663 453.503 711.757 453.411 711.829 453.302C711.901 453.194 711.948 453.071 711.969 452.944C711.99 452.816 711.984 452.685 711.95 452.56L711.31 450.11C711.235 449.836 711.062 449.6 710.824 449.445C710.587 449.29 710.301 449.228 710.02 449.27C707.553 449.65 706.327 448.747 706.34 446.56C706.347 445.68 706.323 441.153 706.27 432.98C706.27 432.887 706.288 432.795 706.324 432.71C706.36 432.624 706.413 432.547 706.479 432.481C706.545 432.416 706.623 432.365 706.709 432.33C706.795 432.296 706.887 432.279 706.98 432.28L710.89 432.29C710.989 432.291 711.087 432.273 711.179 432.236C711.27 432.198 711.353 432.143 711.423 432.073C711.493 432.003 711.548 431.92 711.586 431.829C711.623 431.737 711.641 431.639 711.64 431.54V429.17C711.64 428.902 711.535 428.645 711.347 428.456C711.16 428.266 710.905 428.16 710.64 428.16L706.94 428.15C706.773 428.15 706.613 428.084 706.495 427.965C706.376 427.847 706.31 427.687 706.31 427.52ZM822.4 427.57V422.75C822.4 422.575 822.33 422.407 822.207 422.283C822.083 422.16 821.915 422.09 821.74 422.09H817.96C817.79 422.09 817.627 422.157 817.507 422.277C817.387 422.397 817.32 422.56 817.32 422.73V427.53C817.32 427.623 817.301 427.715 817.264 427.801C817.227 427.887 817.173 427.964 817.105 428.029C817.036 428.093 816.956 428.143 816.867 428.176C816.779 428.209 816.684 428.224 816.59 428.22L814.2 428.09C814.129 428.087 814.058 428.099 813.991 428.124C813.924 428.149 813.863 428.186 813.812 428.235C813.761 428.284 813.72 428.342 813.692 428.406C813.664 428.471 813.65 428.54 813.65 428.61V431.74C813.65 431.894 813.711 432.041 813.82 432.15C813.929 432.259 814.076 432.32 814.23 432.32H816.84C817.007 432.32 817.167 432.386 817.285 432.505C817.404 432.623 817.47 432.783 817.47 432.95C817.483 438.53 817.503 442.877 817.53 445.99C817.543 448.377 817.8 449.973 818.3 450.78C820.24 453.94 823.88 454.15 827.28 453.64C827.408 453.622 827.531 453.576 827.64 453.507C827.749 453.439 827.843 453.347 827.915 453.24C827.986 453.132 828.034 453.011 828.056 452.883C828.078 452.756 828.072 452.625 828.04 452.5L827.4 450.06C827.327 449.785 827.154 449.547 826.916 449.392C826.678 449.237 826.391 449.176 826.11 449.22C823.657 449.6 822.437 448.703 822.45 446.53C822.457 445.65 822.43 441.143 822.37 433.01C822.37 432.824 822.444 432.646 822.575 432.515C822.706 432.384 822.884 432.31 823.07 432.31H826.97C827.166 432.31 827.355 432.232 827.493 432.093C827.632 431.954 827.71 431.766 827.71 431.57V429.21C827.71 428.942 827.605 428.685 827.417 428.496C827.23 428.306 826.975 428.2 826.71 428.2H823.03C822.863 428.2 822.703 428.134 822.585 428.015C822.466 427.897 822.4 427.737 822.4 427.57ZM453.4 431.43L453.81 429.24C453.835 429.108 453.831 428.972 453.797 428.842C453.763 428.712 453.701 428.591 453.615 428.487C453.529 428.384 453.421 428.301 453.299 428.245C453.177 428.188 453.044 428.159 452.91 428.16L449.95 428.17C449.817 428.17 449.684 428.196 449.561 428.248C449.438 428.299 449.326 428.375 449.232 428.469C449.138 428.564 449.064 428.677 449.014 428.8C448.964 428.924 448.939 429.057 448.94 429.19L449.06 452.74C449.06 452.836 449.079 452.931 449.116 453.019C449.153 453.108 449.208 453.188 449.277 453.256C449.345 453.324 449.427 453.378 449.517 453.414C449.607 453.451 449.703 453.47 449.8 453.47L453.5 453.45C453.589 453.449 453.677 453.43 453.759 453.395C453.841 453.36 453.916 453.31 453.978 453.247C454.04 453.184 454.089 453.109 454.122 453.027C454.155 452.945 454.171 452.858 454.17 452.77C454.103 448.437 454.113 443.357 454.2 437.53C454.29 430.85 465.02 430.13 465.17 437.49C465.277 442.11 465.3 447.21 465.24 452.79C465.239 452.874 465.254 452.957 465.286 453.034C465.317 453.112 465.364 453.182 465.424 453.242C465.483 453.302 465.554 453.349 465.633 453.381C465.711 453.413 465.795 453.43 465.88 453.43L469.73 453.41C469.814 453.41 469.896 453.393 469.973 453.361C470.051 453.329 470.12 453.282 470.179 453.222C470.238 453.162 470.284 453.092 470.315 453.014C470.346 452.937 470.361 452.854 470.36 452.77C470.2 447.183 470.147 442.5 470.2 438.72C470.26 433.8 469.33 429.6 464.52 428.19C461.57 427.32 457.42 427.79 455.23 430.3C454.523 431.113 454.063 431.59 453.85 431.73C453.802 431.764 453.745 431.782 453.687 431.783C453.628 431.784 453.571 431.767 453.522 431.734C453.474 431.702 453.436 431.655 453.414 431.601C453.392 431.547 453.387 431.487 453.4 431.43ZM524.59 431.56C524.543 431.4 524.667 430.63 524.96 429.25C524.987 429.124 524.985 428.994 524.955 428.869C524.926 428.744 524.869 428.627 524.788 428.526C524.708 428.426 524.606 428.345 524.491 428.288C524.375 428.232 524.249 428.202 524.12 428.2L520.95 428.19C520.831 428.189 520.712 428.211 520.601 428.255C520.49 428.3 520.389 428.366 520.304 428.449C520.218 428.533 520.15 428.633 520.103 428.743C520.056 428.852 520.031 428.97 520.03 429.09L519.94 452.89C519.939 452.973 519.954 453.055 519.984 453.132C520.015 453.209 520.06 453.279 520.117 453.338C520.175 453.398 520.244 453.445 520.32 453.478C520.396 453.511 520.477 453.529 520.56 453.53L524.53 453.54C524.686 453.54 524.836 453.477 524.947 453.364C525.058 453.252 525.12 453.099 525.12 452.94C525.167 447.98 525.17 444.017 525.13 441.05C525.04 434.78 526.89 432.03 533.21 432.61C533.288 432.617 533.366 432.608 533.44 432.584C533.514 432.56 533.582 432.522 533.639 432.471C533.697 432.42 533.743 432.358 533.774 432.289C533.805 432.22 533.821 432.145 533.82 432.07L533.83 428.5C533.832 428.363 533.785 428.23 533.697 428.124C533.609 428.018 533.486 427.946 533.35 427.92C530.017 427.267 527.337 428.513 525.31 431.66C525.268 431.726 525.208 431.779 525.137 431.812C525.066 431.846 524.988 431.858 524.911 431.847C524.834 431.837 524.763 431.804 524.706 431.753C524.649 431.701 524.608 431.635 524.59 431.56ZM542.28 431.35L542.91 429.1C542.944 428.984 542.95 428.861 542.928 428.742C542.906 428.623 542.856 428.51 542.782 428.413C542.709 428.316 542.613 428.237 542.503 428.183C542.394 428.129 542.273 428.1 542.15 428.1H538.62C538.408 428.1 538.204 428.184 538.054 428.334C537.904 428.484 537.82 428.688 537.82 428.9V462.46C537.82 462.606 537.879 462.746 537.984 462.849C538.089 462.952 538.231 463.01 538.38 463.01H542.39C542.501 463.01 542.608 462.966 542.687 462.887C542.766 462.808 542.81 462.701 542.81 462.59V450.31C542.81 450.268 542.823 450.227 542.848 450.193C542.872 450.159 542.907 450.134 542.947 450.12C542.987 450.107 543.03 450.107 543.07 450.119C543.11 450.132 543.145 450.156 543.17 450.19C545.77 453.65 549.267 454.677 553.66 453.27C567.24 448.91 561.21 421.57 545.81 428.94C544.44 429.59 543.67 431.25 542.67 431.69C542.619 431.711 542.563 431.718 542.508 431.709C542.454 431.7 542.403 431.677 542.362 431.641C542.321 431.605 542.291 431.559 542.277 431.507C542.262 431.456 542.263 431.401 542.28 431.35ZM570.8 431.53C570.753 431.37 570.873 430.603 571.16 429.23C571.187 429.103 571.185 428.972 571.155 428.847C571.124 428.721 571.066 428.603 570.985 428.503C570.904 428.402 570.801 428.321 570.684 428.265C570.567 428.209 570.439 428.18 570.31 428.18H567.15C566.909 428.18 566.677 428.276 566.507 428.447C566.336 428.617 566.24 428.849 566.24 429.09V452.82C566.24 452.987 566.306 453.147 566.424 453.265C566.543 453.384 566.703 453.45 566.87 453.45H570.82C570.976 453.45 571.127 453.387 571.237 453.274C571.348 453.162 571.41 453.009 571.41 452.85C571.437 447.903 571.423 443.95 571.37 440.99C571.26 434.74 573.09 431.99 579.4 432.54C579.476 432.547 579.553 432.538 579.626 432.514C579.699 432.49 579.765 432.451 579.822 432.401C579.878 432.35 579.924 432.288 579.954 432.219C579.985 432.15 580 432.075 580 432V428.44C580 428.305 579.952 428.174 579.864 428.07C579.776 427.966 579.655 427.896 579.52 427.87C576.193 427.23 573.523 428.483 571.51 431.63C571.47 431.695 571.413 431.748 571.344 431.78C571.275 431.813 571.198 431.825 571.122 431.814C571.046 431.804 570.976 431.771 570.918 431.72C570.861 431.67 570.82 431.604 570.8 431.53ZM594.64 447.93C597.31 455.91 612.98 456.49 615.03 447.72C615.91 443.95 613.52 440.58 609.82 439.65C606.18 438.73 601.68 437.99 600.82 436.51C600.499 435.965 600.393 435.321 600.52 434.702C600.648 434.083 601 433.534 601.51 433.16C604.75 430.8 607.543 431.223 609.89 434.43C609.998 434.579 610.134 434.705 610.29 434.801C610.446 434.897 610.619 434.961 610.8 434.99C611.753 435.137 612.87 435.02 614.15 434.64C614.314 434.591 614.452 434.48 614.534 434.33C614.616 434.181 614.637 434.004 614.59 433.84C612.04 424.77 594.24 425.77 595.31 436.43C595.68 440.11 598.81 441.78 602.39 442.4C604.29 442.73 608.74 443.22 609.95 445.46C610.221 445.966 610.297 446.559 610.163 447.133C610.03 447.707 609.696 448.227 609.22 448.6C607.05 450.3 601.29 450.93 600.1 447.37C599.999 447.064 599.8 446.799 599.534 446.618C599.268 446.437 598.95 446.35 598.63 446.37L595.57 446.55C595.41 446.56 595.254 446.607 595.114 446.687C594.975 446.767 594.855 446.878 594.765 447.011C594.676 447.144 594.618 447.297 594.596 447.456C594.574 447.615 594.589 447.777 594.64 447.93ZM642.52 441.6C642.55 435.82 640.18 429.37 634.01 428.13C627.78 426.87 622.33 429.52 620.22 435.58C618.71 439.96 619.18 446.34 622.35 450.18C627.22 456.07 639.23 455.38 641.92 447.58C641.964 447.451 641.978 447.313 641.958 447.177C641.939 447.042 641.887 446.913 641.808 446.802C641.729 446.69 641.624 446.599 641.503 446.537C641.381 446.474 641.247 446.441 641.11 446.44H638.12C637.822 446.44 637.53 446.525 637.278 446.686C637.027 446.848 636.826 447.078 636.7 447.35C635.873 449.137 633.793 449.95 630.46 449.79C629.504 449.744 628.575 449.459 627.759 448.961C626.943 448.463 626.266 447.768 625.79 446.94L624.66 445C624.504 444.731 624.422 444.426 624.422 444.116C624.422 443.805 624.504 443.499 624.66 443.23C624.816 442.96 625.04 442.736 625.311 442.58C625.581 442.424 625.888 442.341 626.2 442.34H641.78C641.976 442.34 642.165 442.262 642.303 442.123C642.442 441.984 642.52 441.796 642.52 441.6ZM676.73 431.41L677.15 429.22C677.175 429.089 677.171 428.954 677.138 428.824C677.104 428.695 677.043 428.574 676.958 428.471C676.873 428.368 676.767 428.285 676.646 428.228C676.525 428.171 676.394 428.141 676.26 428.14H673.3C673.032 428.14 672.775 428.246 672.586 428.436C672.396 428.625 672.29 428.882 672.29 429.15V452.67C672.29 452.864 672.368 453.049 672.507 453.186C672.645 453.323 672.834 453.4 673.03 453.4H676.72C676.81 453.4 676.899 453.382 676.983 453.348C677.066 453.314 677.141 453.263 677.204 453.2C677.268 453.137 677.318 453.062 677.351 452.979C677.385 452.897 677.401 452.809 677.4 452.72C677.353 448.393 677.387 443.32 677.5 437.5C677.62 430.83 688.34 430.17 688.46 437.52C688.54 442.133 688.537 447.227 688.45 452.8C688.449 452.884 688.464 452.967 688.496 453.044C688.527 453.122 688.574 453.192 688.634 453.252C688.693 453.311 688.764 453.359 688.843 453.391C688.921 453.423 689.005 453.44 689.09 453.44H692.93C693.014 453.44 693.096 453.423 693.173 453.391C693.25 453.359 693.32 453.312 693.379 453.252C693.438 453.192 693.484 453.122 693.515 453.044C693.546 452.967 693.561 452.884 693.56 452.8C693.427 447.22 693.397 442.543 693.47 438.77C693.56 433.86 692.65 429.66 687.85 428.23C684.91 427.35 680.77 427.79 678.57 430.29C677.857 431.097 677.393 431.57 677.18 431.71C677.132 431.744 677.075 431.762 677.017 431.763C676.958 431.764 676.901 431.747 676.852 431.714C676.804 431.682 676.766 431.635 676.744 431.581C676.722 431.527 676.717 431.467 676.73 431.41ZM738.34 441.58C738.36 435.8 735.99 429.37 729.83 428.13C723.61 426.88 718.17 429.53 716.07 435.58C714.56 439.96 715.04 446.33 718.21 450.16C723.08 456.04 735.07 455.34 737.75 447.55C737.795 447.421 737.808 447.283 737.788 447.147C737.769 447.012 737.717 446.883 737.638 446.772C737.559 446.66 737.454 446.569 737.333 446.507C737.211 446.444 737.077 446.411 736.94 446.41H733.95C733.651 446.41 733.358 446.495 733.106 446.657C732.855 446.818 732.655 447.048 732.53 447.32C731.71 449.107 729.637 449.92 726.31 449.76C725.354 449.716 724.426 449.432 723.61 448.936C722.793 448.44 722.116 447.746 721.64 446.92L720.51 444.99C720.354 444.721 720.271 444.416 720.27 444.104C720.269 443.793 720.351 443.487 720.506 443.217C720.661 442.948 720.884 442.724 721.154 442.568C721.423 442.412 721.729 442.33 722.04 442.33L737.6 442.32C737.796 442.32 737.984 442.242 738.123 442.103C738.262 441.964 738.34 441.776 738.34 441.58ZM760.61 449.52C760.83 452.62 760.9 456.77 757.66 458.39C754.82 459.82 751.26 459.83 748.97 457.52C748.49 457.04 748.14 456.707 747.92 456.52C747.787 456.412 747.631 456.336 747.464 456.3C747.297 456.263 747.125 456.267 746.96 456.31L743.98 457.09C743.869 457.119 743.766 457.173 743.679 457.247C743.592 457.321 743.523 457.414 743.477 457.519C743.43 457.624 743.409 457.738 743.413 457.852C743.417 457.967 743.447 458.079 743.5 458.18C747.2 465.21 759.81 465.55 764.29 459.05C765.243 457.677 765.653 455.4 765.52 452.22C765.313 447.22 765.303 439.493 765.49 429.04C765.493 428.925 765.472 428.811 765.43 428.705C765.387 428.598 765.323 428.501 765.242 428.419C765.161 428.337 765.065 428.272 764.958 428.227C764.851 428.183 764.736 428.16 764.62 428.16H761.14C761.028 428.16 760.917 428.184 760.815 428.231C760.713 428.278 760.623 428.346 760.551 428.431C760.478 428.516 760.425 428.615 760.396 428.722C760.367 428.829 760.361 428.941 760.38 429.05L760.71 431.13C760.724 431.211 760.712 431.294 760.674 431.366C760.636 431.439 760.575 431.497 760.501 431.531C760.427 431.565 760.343 431.574 760.263 431.556C760.183 431.537 760.112 431.493 760.06 431.43C754.19 424.44 744.3 428.19 742.7 436.48C741.89 440.67 742.12 446.28 745.09 449.66C749.23 454.38 755.97 454.11 760.11 449.35C760.149 449.308 760.199 449.277 760.255 449.263C760.311 449.248 760.37 449.25 760.423 449.268C760.477 449.287 760.523 449.32 760.557 449.365C760.59 449.41 760.608 449.464 760.61 449.52ZM776.32 431.56C776.273 431.4 776.393 430.637 776.68 429.27C776.707 429.143 776.705 429.012 776.675 428.887C776.644 428.761 776.586 428.643 776.505 428.543C776.424 428.442 776.321 428.361 776.204 428.305C776.087 428.249 775.959 428.22 775.83 428.22H772.68C772.44 428.22 772.21 428.315 772.04 428.483C771.87 428.652 771.773 428.88 771.77 429.12L771.73 452.8C771.73 452.967 771.796 453.127 771.915 453.245C772.033 453.364 772.193 453.43 772.36 453.43H776.3C776.455 453.43 776.603 453.368 776.714 453.258C776.824 453.147 776.887 452.997 776.89 452.84C776.923 447.9 776.917 443.953 776.87 441C776.77 434.77 778.6 432.03 784.89 432.58C784.966 432.587 785.042 432.578 785.114 432.555C785.186 432.532 785.252 432.494 785.308 432.444C785.365 432.394 785.41 432.334 785.441 432.266C785.472 432.198 785.489 432.124 785.49 432.05L785.5 428.49C785.5 428.355 785.452 428.224 785.364 428.12C785.276 428.016 785.155 427.946 785.02 427.92C781.7 427.28 779.033 428.527 777.02 431.66C776.979 431.722 776.922 431.772 776.854 431.802C776.787 431.833 776.712 431.844 776.638 431.833C776.565 431.823 776.496 431.791 776.439 431.743C776.383 431.695 776.342 431.631 776.32 431.56ZM804.79 450.83L804.58 452.83C804.572 452.927 804.583 453.025 804.614 453.117C804.645 453.209 804.695 453.293 804.76 453.365C804.825 453.436 804.903 453.493 804.991 453.532C805.079 453.571 805.174 453.59 805.27 453.59H808.66C808.761 453.59 808.86 453.57 808.953 453.532C809.046 453.494 809.13 453.437 809.201 453.367C809.272 453.296 809.327 453.212 809.365 453.12C809.403 453.028 809.421 452.929 809.42 452.83C809.267 444.363 809.173 438.77 809.14 436.05C809.113 432.843 807.877 430.61 805.43 429.35C799.67 426.4 792.25 427.49 788.97 433.63C788.904 433.756 788.87 433.896 788.87 434.038C788.871 434.18 788.906 434.32 788.973 434.445C789.04 434.571 789.137 434.678 789.255 434.757C789.373 434.836 789.509 434.885 789.65 434.9L792.96 435.23C793.24 435.259 793.521 435.194 793.76 435.045C793.999 434.897 794.182 434.674 794.28 434.41C795.013 432.463 797.083 431.603 800.49 431.83C801.327 431.889 802.125 432.208 802.772 432.742C803.419 433.276 803.883 433.999 804.1 434.81L804.18 435.12C804.273 435.479 804.287 435.854 804.22 436.218C804.153 436.583 804.008 436.928 803.793 437.23C803.578 437.531 803.3 437.782 802.978 437.963C802.656 438.145 802.298 438.253 801.93 438.28C795.83 438.76 788.56 439.04 787.98 445.73C787.673 449.217 789.183 451.627 792.51 452.96C797.137 454.813 801.11 454.047 804.43 450.66C804.46 450.628 804.5 450.607 804.543 450.599C804.587 450.591 804.631 450.597 804.671 450.616C804.711 450.634 804.744 450.665 804.765 450.704C804.786 450.742 804.795 450.786 804.79 450.83ZM855.11 427.513C853.52 427.549 851.97 427.931 850.52 428.637C849.07 429.343 847.77 430.359 846.68 431.628C845.59 432.896 844.73 434.392 844.16 436.03C843.6 437.668 843.32 439.415 843.36 441.173C843.4 442.931 843.75 444.665 844.4 446.275C845.04 447.886 845.96 449.341 847.11 450.559C848.25 451.777 849.6 452.733 851.08 453.372C852.56 454.012 854.13 454.322 855.71 454.287C857.3 454.251 858.85 453.869 860.3 453.163C861.75 452.457 863.05 451.441 864.14 450.172C865.23 448.904 866.09 447.408 866.66 445.77C867.22 444.132 867.5 442.385 867.46 440.627C867.42 438.869 867.07 437.135 866.42 435.525C865.78 433.914 864.86 432.459 863.71 431.241C862.57 430.023 861.22 429.067 859.74 428.428C858.26 427.788 856.69 427.477 855.11 427.513ZM876.86 431.44L877.28 429.23C877.31 429.098 877.3 428.962 877.27 428.831C877.24 428.701 877.18 428.579 877.09 428.474C877.01 428.37 876.9 428.286 876.78 428.228C876.66 428.17 876.52 428.14 876.39 428.14H873.4C873.13 428.14 872.87 428.247 872.68 428.439C872.49 428.63 872.38 428.889 872.38 429.16L872.37 452.88C872.37 453.076 872.45 453.264 872.59 453.403C872.73 453.542 872.92 453.62 873.12 453.62H876.84C877.02 453.62 877.2 453.548 877.33 453.421C877.46 453.293 877.53 453.12 877.53 452.94C877.48 448.573 877.52 443.453 877.63 437.58C877.76 430.86 888.57 430.19 888.69 437.61C888.77 442.263 888.76 447.4 888.67 453.02C888.67 453.105 888.68 453.189 888.72 453.268C888.75 453.347 888.8 453.418 888.86 453.479C888.92 453.539 888.99 453.588 889.07 453.62C889.15 453.653 889.23 453.67 889.32 453.67H893.19C893.27 453.67 893.36 453.653 893.44 453.62C893.52 453.588 893.59 453.54 893.65 453.479C893.71 453.419 893.75 453.347 893.78 453.268C893.82 453.189 893.83 453.105 893.83 453.02C893.7 447.393 893.67 442.677 893.74 438.87C893.83 433.92 892.92 429.68 888.08 428.24C885.11 427.35 880.94 427.79 878.72 430.31C878 431.123 877.53 431.6 877.31 431.74C877.26 431.769 877.21 431.783 877.15 431.782C877.09 431.78 877.04 431.763 876.99 431.732C876.94 431.7 876.91 431.656 876.88 431.605C876.86 431.553 876.85 431.496 876.86 431.44ZM515.1 441.63C515.14 435.88 512.8 429.46 506.66 428.21C500.46 426.94 495.03 429.57 492.92 435.59C491.41 439.95 491.86 446.3 495.01 450.12C499.84 456 511.79 455.34 514.49 447.58C514.535 447.451 514.548 447.314 514.529 447.179C514.509 447.044 514.458 446.916 514.378 446.805C514.299 446.694 514.194 446.604 514.072 446.542C513.951 446.48 513.816 446.449 513.68 446.45L510.71 446.44C510.412 446.439 510.12 446.523 509.868 446.682C509.617 446.842 509.416 447.07 509.29 447.34C508.463 449.12 506.393 449.923 503.08 449.75C502.129 449.703 501.206 449.418 500.395 448.922C499.584 448.425 498.912 447.734 498.44 446.91L497.32 444.98C497.166 444.711 497.085 444.405 497.086 444.095C497.087 443.784 497.169 443.479 497.325 443.211C497.481 442.942 497.705 442.719 497.975 442.565C498.244 442.41 498.549 442.329 498.86 442.33L514.36 442.37C514.556 442.37 514.744 442.292 514.883 442.153C515.022 442.014 515.1 441.826 515.1 441.63ZM838.2 428.611C838.2 428.544 838.18 428.478 838.16 428.416C838.13 428.354 838.09 428.298 838.05 428.251C838 428.204 837.94 428.166 837.88 428.141C837.82 428.115 837.75 428.102 837.69 428.103L833.446 428.117C833.379 428.118 833.312 428.131 833.251 428.157C833.189 428.183 833.133 428.221 833.086 428.268C833.038 428.316 833.001 428.372 832.976 428.434C832.95 428.496 832.937 428.562 832.937 428.629L833.023 453.049C833.023 453.116 833.036 453.182 833.062 453.244C833.088 453.306 833.126 453.362 833.173 453.409C833.221 453.456 833.277 453.494 833.339 453.519C833.401 453.545 833.467 453.558 833.534 453.557L837.77 453.543C837.84 453.542 837.91 453.529 837.97 453.503C838.03 453.477 838.09 453.439 838.13 453.392C838.18 453.344 838.22 453.288 838.24 453.226C838.27 453.164 838.28 453.098 838.28 453.031L838.2 428.611ZM589.409 428.745C589.409 428.676 589.395 428.607 589.368 428.543C589.341 428.478 589.302 428.42 589.253 428.371C589.204 428.322 589.145 428.283 589.081 428.256C589.016 428.23 588.947 428.216 588.878 428.216L584.698 428.224C584.628 428.224 584.559 428.238 584.495 428.264C584.431 428.291 584.373 428.33 584.323 428.38C584.274 428.429 584.235 428.487 584.209 428.552C584.182 428.616 584.169 428.685 584.169 428.755L584.211 453.075C584.211 453.144 584.225 453.213 584.252 453.277C584.279 453.342 584.318 453.4 584.367 453.449C584.416 453.498 584.475 453.537 584.539 453.564C584.604 453.59 584.673 453.604 584.742 453.604L588.922 453.596C588.992 453.596 589.061 453.582 589.125 453.556C589.189 453.529 589.247 453.49 589.297 453.44C589.346 453.391 589.385 453.333 589.411 453.268C589.438 453.204 589.451 453.135 589.451 453.065L589.409 428.745ZM1075.02 674.44C1074.31 674.54 1073.68 674.47 1073.15 674.23C1072.99 674.157 1072.84 674.053 1072.72 673.925C1072.6 673.796 1072.51 673.645 1072.45 673.48C1070.85 668.94 1067.54 665.75 1062.64 665.37C1057.33 664.95 1053.48 666.953 1051.09 671.38C1048.72 675.76 1049.36 681.37 1052.76 684.96C1058.88 691.46 1069.18 689.45 1072.52 680.84C1072.62 680.592 1072.8 680.383 1073.02 680.244C1073.25 680.105 1073.52 680.044 1073.79 680.07C1077.28 680.43 1081.55 680.69 1081.48 675.77C1081.44 672.56 1081.13 664.9 1082.46 661.15C1084.35 655.83 1087.86 652.26 1093.01 650.44C1104.26 646.45 1115.64 655.33 1115.99 666.74C1116.13 671.353 1116.1 677.023 1115.91 683.75C1115.58 695.08 1119.92 704.82 1131.06 709.04C1139.47 712.23 1150.15 710.12 1155.95 702.82C1160.93 696.55 1161.89 690.88 1161.67 681.49C1161.6 678.483 1161.65 673.847 1161.81 667.58C1162.08 656.787 1167.89 650.713 1179.23 649.36C1179.59 649.318 1179.93 649.205 1180.24 649.029C1180.56 648.853 1180.83 648.616 1181.05 648.333C1181.27 648.05 1181.43 647.726 1181.52 647.381C1181.62 647.035 1181.64 646.674 1181.59 646.32L1181.56 646.14C1181.46 645.408 1181.09 644.741 1180.52 644.271C1179.95 643.802 1179.23 643.566 1178.49 643.61C1164.35 644.43 1155.45 655.7 1155.69 669.51C1155.84 677.837 1155.86 683.99 1155.75 687.97C1155.61 693.05 1153.75 697.12 1150.18 700.18C1143.05 706.28 1132.51 706.51 1126.32 698.9C1122.58 694.29 1121.75 690.57 1121.9 683.95C1122 679.643 1121.97 675.413 1121.82 671.26C1121.63 666.187 1121.19 662.51 1120.5 660.23C1118.15 652.417 1113.04 647.217 1105.18 644.63C1099.64 642.81 1092.4 643.53 1087.34 646.55C1080.05 650.9 1075.69 658.51 1075.59 667.1C1075.56 669.587 1075.57 671.807 1075.6 673.76C1075.6 673.924 1075.54 674.084 1075.44 674.209C1075.33 674.334 1075.18 674.416 1075.02 674.44ZM1138.86 688.82C1151.06 688.79 1154.72 673.34 1144.95 666.62C1144.24 666.14 1143.11 665.8 1142.29 665.45C1142.12 665.375 1141.97 665.252 1141.86 665.096C1141.76 664.94 1141.7 664.757 1141.7 664.57L1141.51 646.52C1141.51 646.308 1141.47 646.1 1141.39 645.91C1140.81 644.57 1139.93 643.9 1138.75 643.9C1137.58 643.9 1136.7 644.577 1136.12 645.93C1136.04 646.117 1136 646.321 1136 646.53L1135.9 664.58C1135.9 664.769 1135.84 664.953 1135.74 665.112C1135.63 665.27 1135.48 665.394 1135.31 665.47C1134.5 665.82 1133.37 666.17 1132.66 666.65C1122.92 673.41 1126.66 688.85 1138.86 688.82ZM1098.87 665.08C1086.52 665 1082.69 680.6 1092.51 687.48C1093.23 687.97 1094.37 688.33 1095.19 688.69C1095.36 688.766 1095.51 688.891 1095.62 689.049C1095.72 689.206 1095.78 689.391 1095.78 689.58L1095.82 707.84C1095.82 708.052 1095.86 708.26 1095.94 708.45C1096.51 709.817 1097.4 710.503 1098.59 710.51C1099.78 710.523 1100.67 709.85 1101.26 708.49C1101.34 708.3 1101.38 708.092 1101.38 707.88L1101.65 689.62C1101.65 689.43 1101.71 689.244 1101.82 689.087C1101.93 688.929 1102.08 688.805 1102.25 688.73C1103.08 688.38 1104.22 688.04 1104.94 687.55C1114.85 680.8 1111.21 665.16 1098.87 665.08ZM1190.92 677.03C1190.92 673.863 1189.66 670.826 1187.42 668.587C1185.18 666.348 1182.15 665.09 1178.98 665.09C1175.81 665.09 1172.78 666.348 1170.54 668.587C1168.3 670.826 1167.04 673.863 1167.04 677.03C1167.04 680.197 1168.3 683.234 1170.54 685.473C1172.78 687.712 1175.81 688.97 1178.98 688.97C1182.15 688.97 1185.18 687.712 1187.42 685.473C1189.66 683.234 1190.92 680.197 1190.92 677.03ZM1185.67 690.53C1184.5 692.083 1183.06 694.18 1181.36 696.82C1176.37 704.59 1170.94 707.12 1162.45 711.77C1162.33 711.838 1162.23 711.939 1162.17 712.062C1162.1 712.185 1162.07 712.323 1162.09 712.461C1162.1 712.598 1162.15 712.728 1162.24 712.834C1162.32 712.941 1162.44 713.019 1162.57 713.06C1166.26 714.253 1169.73 715.98 1172.98 718.24C1179.6 722.85 1182.6 728.7 1185.56 735.76C1185.61 735.879 1185.69 735.98 1185.8 736.049C1185.91 736.119 1186.04 736.154 1186.16 736.15C1186.29 736.145 1186.42 736.102 1186.52 736.025C1186.62 735.948 1186.7 735.842 1186.74 735.72C1188.1 731.753 1189.89 728.137 1192.11 724.87C1196.23 718.8 1202.5 715.62 1209.72 712.66C1209.83 712.612 1209.93 712.531 1210 712.428C1210.07 712.325 1210.1 712.204 1210.1 712.08C1210.1 711.956 1210.07 711.835 1210 711.732C1209.93 711.629 1209.83 711.548 1209.72 711.5C1199.06 707.12 1191.99 702.03 1187.76 690.83C1187.68 690.629 1187.55 690.453 1187.38 690.319C1187.22 690.185 1187.02 690.098 1186.8 690.068C1186.59 690.037 1186.37 690.064 1186.17 690.145C1185.97 690.226 1185.8 690.359 1185.67 690.53ZM617.73 703.29C617.73 702.505 617.418 701.752 616.863 701.197C616.308 700.642 615.555 700.33 614.77 700.33H461.33C460.545 700.33 459.792 700.642 459.237 701.197C458.682 701.752 458.37 702.505 458.37 703.29V703.63C458.37 704.415 458.682 705.168 459.237 705.723C459.792 706.278 460.545 706.59 461.33 706.59H614.77C615.555 706.59 616.308 706.278 616.863 705.723C617.418 705.168 617.73 704.415 617.73 703.63V703.29Z" fill="#EDF0F5"/>
</svg>
