<svg width="545" height="159" viewBox="0 0 545 159" fill="none" xmlns="http://www.w3.org/2000/svg">
<path d="M78.825 34.139c3.21-.783 10.366.813 13.404 2.319 3.611 1.516 5.796 3.733 8.581 6.387 10.001 9.53 6.56 23.485 7.171 35.766.212 4.273-.066 7.047 1.529 11.245a18.92 18.92 0 0 0 9.986 10.578c5.457 2.451 10.753 2.286 16.388.122 21.942-8.425 6.98-35.282 15.118-51.83 3.185-6.477 7.734-10.31 14.433-13.057 2.106-.863 8.271-2.184 10.256-1.226a3.7 3.7 0 0 1 1.916 2.196c1.52 4.737-6.708 3.561-9.721 4.725-26.043 10.054-3.092 43.252-20.71 59.151-4.113 3.711-7.265 5.639-12.691 7.265a25.1 25.1 0 0 1-11.522.486c-4.603-.909-8.394-3.162-11.964-6.037-17.589-13.077-3.336-37.943-13.34-53.219-11.52-17.594-39.239-6.623-37.016 13.95.428 3.965.847 8.944-2.615 11.275l-7.382.025c-1.003 2.264-1.771 4.194-3.387 6.118a13.32 13.32 0 0 1-9.126 4.646c-3.4.27-7.229-1.003-9.812-3.22a13.2 13.2 0 0 1-4.565-9.062c-.275-3.773.966-7.5 3.45-10.356a12.92 12.92 0 0 1 8.943-4.308c5.025-.318 10.233 1.976 12.27 6.544.815 1.826 1.366 3.52 3.736 3.44 2.86.204 2.702-3.359 2.496-5.686-1.223-13.761 8.694-26.997 24.174-28.237" fill="#4154A3"/>
<path d="m412.328 41.4 7.043-.205c.994 6.34 3.018 12.154 4.321 18.468.123 2.097.801 4.336 1.466 6.324.287-1.023.848-2.818 1.035-3.8 1.72-5.417 3.659-14.706 5.244-20.625 2.453-.263 4.006-.24 6.485-.186 1.973 7.47 3.689 17.392 5.883 24.499 1.144-6.588 3.862-17.852 5.596-24.6l6.92-.044c-.843 4.127-2.348 9.03-3.455 13.13a1009 1009 0 0 0-5.343 20.836q-3.299.096-6.599.008c-2.38-7.357-4.127-17.398-6.59-23.762-1.165 3.822-4.963 21.45-6.447 23.677-1.569.88-4.894.441-6.761.333-2.33-9.036-4.519-18.09-7.093-27.065a87 87 0 0 1-1.705-6.988" fill="#222C40"/>
<path d="M79.9 58.031c2.956-.186 5.91.41 8.436 1.992a13.2 13.2 0 0 1 5.766 8.176c1.67 7.34-2.144 14.549-9.694 16.213-.523 6.829.164 13.865-.274 20.697-.116 1.816-.63 2.82-2.074 3.922q-.198.015-.398.02c-5.219.104-3.645-9.023-3.572-12.642q.117-5.84-.042-11.681c-2.113-.724-3.325-1.094-5.146-2.452-8.374-6.24-6.533-19.699 3.265-23.389 1.448-.545 2.228-.666 3.733-.856m47-24.059c.842.01 1.824.023 2.564.472 1.962 1.192.847 20.187 1.642 23.754 1.762.566 2.908 1.035 4.458 2.127a13.1 13.1 0 0 1 5.346 8.662c1.405 8.634-3.563 14.542-11.971 15.849-10.491.218-16.969-8.01-13.74-18.215 1.524-4.814 5.383-6.912 9.642-8.952-.209-2.502-.078-6.39-.106-9.028-.041-3.74-.331-8.106.154-11.774.205-1.548.813-2.086 2.011-2.895m176.145 16.042c2.585-.739 5.324-.976 7.774.391q.336.19.657.408c1.218.855 1.779 1.788 2.62 2.99l-.019-4.155c2.242-.217 4.176-.197 6.429-.192-.088 6.096.792 24.322-.841 28.966-.785 2.227-2.359 4.05-4.508 5.049-3.45 1.603-8.921 1.619-12.455.296-1.75-.655-4.801-2.282-5.524-4.142-.245-.631-.019-.958.252-1.514.75-.697 4.758-.761 5.985-.838 3.066 3.813 6.76 3.708 10.13.359.476-2.21.354-4.499.25-6.737-3.572 3.922-7.402 5.253-12.405 2.72-7.481-3.79-6.97-21.532 1.655-23.601m6.987 19.67c1.526-.93 2.13-1.582 3.37-2.818 1.159-5.303 1.401-11.94-5.881-11.826-6.016 2.023-5.71 11.456-.822 14.584z" fill="#4154A3"/>
<path d="M303.045 50.014c2.585-.739 5.324-.976 7.774.391q.336.19.657.408c-1.114.34-7.548-.12-8.431-.8m-131.5 8.157c7.357-1.685 14.682 2.93 16.336 10.293 1.654 7.361-2.993 14.665-10.364 16.288-7.327 1.613-14.58-3-16.225-10.318-1.644-7.318 2.94-14.589 10.253-16.263m335.682-8.66c10.338-.947 14.549 5.33 13.634 14.98-5.535-.213-11.61-.088-17.187-.077.737 2.412 1.157 3.218 2.819 5.108 6.226 2.412 6.144-1.996 11.695-1.722l2.619.252c-1.718 3.781-3.662 6.184-7.893 7.188-6.703 1.592-14.094-2.019-15.387-9.161-1.423-7.866 1.211-14.87 9.7-16.569m-3.391 10.178c1.633.003 3.705-.05 5.298.107l6.192.033c-1.357-3.23-1.934-5.204-5.814-5.5-3.742.47-4.655 1.837-5.676 5.36M279.142 49.524q.61-.033 1.221-.052c10.165-.32 11.974 6.414 12.211 14.896-5.769.234-11.586-.164-17.341.112 2.183 6.616 5.963 7.86 11.492 3.3l3.189.03c1.069.029 1.436-.145 2.096.458.3 3.234-5.793 6.828-8.543 7.197-7.014.943-13.45-2.433-14.445-9.857-1.053-7.853 1.49-14.828 10.12-16.084m4.179 10.252 3.112.04c-1.479-4.364-2.354-5.758-7.315-5.212-1.486.869-3.827 2.902-2.859 4.777 1.282.786 5.125.336 7.062.395M352.1 49.531c5.026-.504 11.809.528 12.62 6.218.827 5.802.393 13.806.431 19.737-2.447.18-3.961.09-6.426-.04-.146-.925-.213-2.473-.285-3.45-3.989 4.313-8.181 4.78-13.04 1.554-2.176-2.325-2.713-4.447-1.918-7.535 1.437-5.58 7.695-5.859 12.429-6.23.83-.064 1.42-.03 2.17-.445 2.008-2.597-1.399-5.22-4.005-4.843-2.354.34-2.652.844-4.136 2.62-1.322.048-3.942.234-5.133-.024-2.612-3.293 4.537-6.956 7.293-7.562m-1.096 20.527c3.154.631 4.947.474 7.202-1.95.144-1.296.404-3.05.271-4.307-.17-.117-.204-.193-.361-.173-2.25.469-8.703.968-8.391 4.144.061.617.792 1.912 1.279 2.286m45.557-20.543c10.554-.948 14.378 5.302 13.934 15.016-3.362-.36-13.907-.202-17.221.063 3.63 11.633 8.795 2.513 13.588 3.163l3.593.151q-.32.735-.691 1.445c-5.229 9.753-20.094 7.584-22.573-2.658-2.034-8.412 1.067-14.882 9.37-17.18m4.051 10.295c1.074.04 2.524.054 3.564.166-1.306-4.03-1.99-5.7-6.567-5.389-1.851.596-4.186 2.162-3.878 4.402 1.221 1.5 4.844.645 6.881.821m-169.915-5.86c5.805-8.02 16.629-5.175 16.423 4.924-.112 5.52.016 11.099-.137 16.638-2.282.125-4.269.069-6.556.007l.001-11.241c.01-2.6-.006-4.333-.345-6.892-.262-.353-.576-.765-.883-1.08a4.17 4.17 0 0 0-3.058-1.255c-7.44.07-5.105 14.764-5.048 20.169-1.681.248-4.793.038-6.615-.035-.151-3.79-.801-23.012-.087-25.372l.7-.24c2.347-.065 3.778-.009 6.119.194-.277 1.246-.389 2.885-.514 4.183m249.575-4.44c4.298-.382 14.367 1.5 12.415 7.56-.904.444-3.827.19-4.883.1-1.415-.12-.843-.967-1.812-2.208-6.268-3.55-11.17 4.406-1.151 5.152 11.253.839 12.059 12.609 1.026 15.139-7.034 1.19-11.689-.605-14.322-7.338a83 83 0 0 1 6.221-.013c2.258 2.44 4.051 4.015 7.455 2.34.838-.411 1.681-.832 2.019-1.765-.639-3.326-7.889-3.536-10.445-4.786-1.667-.817-3.141-2.765-4.146-4.28-.388-6.349 1.207-8.508 7.623-9.901m-222.629-6.057c.273-.072 2.502-.12 2.933-.134l.079 6.415c1.506.04 3.277-.06 4.803-.11.122 1.973.184 3.074.035 5.055-1.598 0-3.253.047-4.856.074-.012 2.532-.325 11.582.463 14.126.251.81 3.139.796 4.254.817.082 1.436.437 4.412-.312 5.585-.125.196-.577.231-.871.299-8.1.019-10.464-2.32-10.185-10.57.112-3.289.045-6.975.048-10.295l-3.558.042-.124-5.026 3.557.071.093-5.956c1.084-.176 2.522-.28 3.641-.393m114.582.188 6.407-.116c.149 1.964.075 4.207.056 6.198l4.684.02c.199 1.596.133 3.346.117 4.965l-4.891.044c-.061 4.933-.093 9.278.298 14.22 1.96.65 2.489.704 4.58.691l.117 4.586c-.104.763.016.492-.522 1.08-1.619.473-4.279.31-5.957-.042-5.107-1.073-5.168-6.275-5.048-10.367.103-3.488.037-6.829.016-10.18l-3.426.025c-.05-1.649.016-3.462.043-5.123l3.433.136c-.045-2.138.006-3.999.093-6.137m-160.361-2.204c1.444-.412 4.411-.315 5.997-.299.026 4.194.636 31.29-.222 34.046-.132.11-.449.388-.579.454-1.526-.163-4.319-.15-5.942-.189l.079-23.498c.001-1.624-.12-8.947.114-10.173z" fill="#222C40"/>
<path d="M211.864 41.437c1.444-.412 4.411-.315 5.997-.299.026 4.194.636 31.29-.222 34.046-.132.11-.449.388-.579.454-.179-.647-.061-7.446-.06-8.585l.056-24.908-4.363.012-.079 2.694c-.083-1.437.124-2.63-.75-3.414m126.711 7.797c1.351-.14 2.394-.161 2.367 1.503-.026 1.554-.141 3.23-.173 4.798-8.718-.229-8.053 3.45-7.939 10.787.048 3.035.003 6.212-.13 9.25-1.551-.175-5.625.09-6.335-.615-.186-6.655-.652-18.773-.006-25.309 1.798-.083 4.649-.616 5.955.673.484.823.33 2.101.304 3.103 1.997-2.31 2.885-3.641 5.957-4.19m122.047.538a548 548 0 0 1 6.551-.066c.252 6.64.133 13.372.17 20.021.011 1.826-.005 3.851-.2 5.651-2.032.16-4.423.07-6.494.038-.269-3.488-.615-23.168-.027-25.644z" fill="#1F2435"/>
</svg>